<?xml version="1.0" ?>
<svg id="Layer_1" style="enable-background:new 0 0 512 512;" version="1.1" viewBox="0 0 512 512" xml:space="preserve" xmlns="http://www.w3.org/2000/svg" xmlns:xlink="http://www.w3.org/1999/xlink">
<style type="text/css">
	.st0{fill:#1EF6F6;}
	.st1{fill:#FDDD7B;}
	.st2{fill:#EAF3F2;}
	.st3{fill:#D4FF93;}
	.st4{fill:#FD535F;}
	.st5{stroke:#000000;stroke-width:2;stroke-linecap:round;stroke-linejoin:round;stroke-miterlimit:10;}
	.st6{fill:none;stroke:#000000;stroke-width:2;stroke-linecap:round;stroke-linejoin:round;stroke-miterlimit:10;}
	.st7{fill:#1EF6F6;stroke:#000000;stroke-width:2;stroke-linecap:round;stroke-linejoin:round;stroke-miterlimit:10;}
</style>

<g id="Layer_1">
<g><circle cx="256" cy="256" fill="#77B3D4" r="256"/></g>
</g>

<g>
<g><path class="st2" d="M255.21,219.77l4.18-0.33c46.39-11.71,80.72-53.71,80.72-103.73c0-59.08-47.9-106.98-106.98-106.98    s-106.98,47.9-106.98,106.98c0,50.5,34.99,92.83,82.06,104.06l3.97,0.55"/><path d="M212.18,228.04c-0.35,0-0.71-0.02-1.06-0.07l-3.97-0.54c-52.55-12.5-88.74-58.38-88.74-111.72    C118.42,52.46,169.88,1,233.13,1s114.71,51.46,114.71,114.71c0,52.63-35.59,98.36-86.55,111.22c-0.42,0.11-0.85,0.17-1.28,0.21    l-4.18,0.33c-4.29,0.32-7.97-2.84-8.32-7.09c-0.34-4.26,2.84-7.98,7.09-8.32l3.52-0.28c43.76-11.33,74.26-50.76,74.26-96.08    c0-54.73-44.53-99.25-99.25-99.25s-99.25,44.52-99.25,99.25c0,46.15,31.3,85.85,76.12,96.55l3.22,0.4    c4.23,0.58,7.19,4.48,6.61,8.71C219.29,225.23,215.98,228.04,212.18,228.04z"/></g>
<g><rect class="st0" height="52.11" width="167.65" x="218.21" y="451.16"/><path d="M385.85,511H218.21c-4.27,0-7.73-3.46-7.73-7.73v-52.11c0-4.27,3.46-7.73,7.73-7.73h167.64c4.27,0,7.73,3.46,7.73,7.73    v52.11C393.58,507.54,390.12,511,385.85,511z M225.94,495.54h152.19v-36.65H225.94V495.54z"/></g>
<g><path class="st3" d="M212.17,188.94c-32.09-9.11-55.59-38.63-55.59-73.64c0-42.28,34.27-76.55,76.55-76.55    s76.55,34.27,76.55,76.55c0,34.6-22.95,63.84-54.46,73.32"/><path d="M212.17,196.66c-0.7,0-1.41-0.09-2.12-0.29c-36.04-10.24-61.2-43.58-61.2-81.08c0-46.47,37.81-84.28,84.28-84.28    s84.28,37.81,84.28,84.28c0,36.9-24.66,70.09-59.97,80.71c-4.09,1.19-8.4-1.09-9.63-5.18c-1.23-4.09,1.09-8.4,5.17-9.63    c28.83-8.67,48.96-35.77,48.96-65.91c0-37.95-30.87-68.82-68.82-68.82s-68.82,30.87-68.82,68.82c0,30.62,20.55,57.85,49.97,66.21    c4.11,1.17,6.49,5.44,5.32,9.55C218.64,194.45,215.54,196.66,212.17,196.66z"/></g>
<g><path class="st4" d="M205.46,140.47c-6.08-6.7-10.09-15.94-10.09-25.71c0-20.85,16.9-37.76,37.76-37.76s37.76,16.9,37.76,37.76    c0,9.93-3.83,18.97-10.1,25.71"/><path d="M205.46,148.2c-2.11,0-4.2-0.85-5.72-2.54c-7.69-8.47-12.09-19.73-12.09-30.89c0-25.08,20.4-45.49,45.48-45.49    s45.48,20.4,45.48,45.49c0,11.53-4.32,22.53-12.17,30.96c-2.91,3.13-7.8,3.3-10.92,0.4c-3.12-2.91-3.3-7.8-0.4-10.92    c5.18-5.57,8.03-12.83,8.03-20.44c0-16.56-13.47-30.03-30.03-30.03S203.1,98.2,203.1,114.77c0,7.37,2.95,14.85,8.08,20.51    c2.87,3.16,2.63,8.04-0.53,10.91C209.17,147.53,207.31,148.2,205.46,148.2z"/></g>
<g>
<g><path class="st1" d="M357.16,273.83c24.92-9.82,28.7,23.41,28.7,23.41v153.93H218.21c-119.32-125.74-6.04-173.37-6.04-173.37"/><path d="M385.85,458.89H218.21c-2.12,0-4.15-0.87-5.61-2.41c-44.19-46.57-62.74-88.63-55.11-124.99     c8.89-42.38,49.94-60.09,51.68-60.82c3.92-1.65,8.46,0.18,10.12,4.13c1.65,3.93-0.19,8.47-4.13,10.12     c-0.34,0.14-35.44,15.46-42.58,49.89c-6.32,30.49,10.15,67.02,48.96,108.63h156.58V297.73c-0.53-3.76-2.98-13.73-8.37-16.94     c-0.9-0.53-3.66-2.18-9.76,0.23c-3.98,1.55-8.46-0.39-10.02-4.36c-1.57-3.97,0.38-8.45,4.35-10.02     c10.93-4.32,18.76-1.87,23.41,0.92c13.06,7.86,15.55,26.68,15.79,28.8c0.03,0.29,0.05,0.58,0.05,0.88v153.93     C393.58,455.44,390.12,458.89,385.85,458.89z"/></g>
<g><path class="st1" d="M212.17,355.01V188.49c0-11.89,9.64-21.52,21.52-21.52h0c11.89,0,21.52,9.64,21.52,21.52v129.13"/><path d="M212.17,362.73c-4.27,0-7.73-3.46-7.73-7.73V188.49c0-16.13,13.12-29.25,29.25-29.25s29.25,13.12,29.25,29.25v129.13     c0,4.27-3.46,7.73-7.73,7.73s-7.73-3.46-7.73-7.73V188.49c0-7.61-6.19-13.79-13.79-13.79s-13.79,6.19-13.79,13.79v166.51     C219.9,359.28,216.44,362.73,212.17,362.73z"/></g>
<g><path class="st1" d="M357.16,297.24v-23.41c0-8.76-7.1-15.86-15.86-15.86h-2.27c-8.76,0-15.86,7.1-15.86,15.86v30.96l0.01-38.14     c0-8.76-7.1-15.86-15.86-15.86h0c-8.76,0-15.86,7.1-15.86,15.86v50.97l-0.01-57.77c0-8.76-7.1-15.86-15.86-15.86h-4.53     c-8.76,0-15.86,7.1-15.86,15.86v57.77"/><path d="M291.47,325.35c-4.27,0-7.73-3.46-7.73-7.73l-0.01-57.77c0-4.48-3.65-8.13-8.13-8.13h-4.53c-4.48,0-8.13,3.65-8.13,8.13     v57.77c0,4.27-3.46,7.73-7.73,7.73s-7.73-3.46-7.73-7.73v-57.77c0-13.01,10.58-23.59,23.59-23.59h4.53     c8.06,0,15.19,4.07,19.45,10.26c3.58-2.19,7.78-3.46,12.28-3.46c8.17,0,15.39,4.18,19.62,10.51c3.54-2.12,7.67-3.34,12.09-3.34     h2.27c13.01,0,23.59,10.58,23.59,23.58v23.41c0,4.27-3.46,7.73-7.73,7.73s-7.73-3.46-7.73-7.73v-23.41     c0-4.48-3.65-8.13-8.13-8.13h-2.27c-4.35,0-7.92,3.43-8.12,7.73l-0.01,31.35c0,4.27-3.46,7.73-7.73,7.73l0,0     c-4.27,0-7.73-3.46-7.73-7.73v-30.96c0-0.23,0-0.45,0.01-0.67l0-6.5c0-4.48-3.65-8.13-8.13-8.13c-4.48,0-8.13,3.65-8.13,8.13     v50.97C299.19,321.89,295.73,325.35,291.47,325.35z"/></g>
</g>
</g>

</svg>


