<?xml version="1.0" ?><svg height="295px" version="1.1" viewBox="0 0 295 295" width="295px" xmlns="http://www.w3.org/2000/svg" xmlns:xlink="http://www.w3.org/1999/xlink"><title/><desc/><defs/><g fill="none" fill-rule="evenodd" id="Page-1" stroke="none" stroke-width="1"><g fill-rule="nonzero" id="next-arrow"><path d="M286.36,98.016 C273.137,60.925 246.262,31.203 210.685,14.325 C175.109,-2.554 135.088,-4.567 97.997,8.656 C60.906,21.879 31.183,48.754 14.305,84.331 C-2.572,119.908 -4.585,159.928 8.637,197.02 C9.75,200.142 13.184,201.768 16.304,200.657 C19.426,199.544 21.054,196.112 19.941,192.99 C7.794,158.918 9.643,122.155 25.147,89.474 C40.651,56.793 67.954,32.105 102.026,19.959 C136.098,7.813 172.862,9.663 205.542,25.166 C238.224,40.67 262.911,67.973 275.058,102.045 C287.204,136.117 285.355,172.88 269.851,205.561 C254.347,238.242 227.044,262.93 192.972,275.076 C154.783,288.689 112.89,284.569 78.037,263.772 C75.189,262.073 71.508,263.004 69.81,265.85 C68.112,268.696 69.042,272.379 71.888,274.077 C95.095,287.925 121.164,294.98 147.429,294.979 C164.103,294.979 180.859,292.134 197.001,286.38 C234.093,273.157 263.814,246.282 280.692,210.705 C297.57,175.127 299.583,135.107 286.36,98.016 Z" fill="#000000" id="Shape"/><path d="M213.499,147.518 C213.499,144.205 210.812,141.518 207.499,141.518 L58.069,141.518 C54.755,141.518 52.069,144.205 52.069,147.518 C52.069,150.831 54.755,153.518 58.069,153.518 L207.499,153.518 C210.812,153.518 213.499,150.831 213.499,147.518 Z" fill="#FB4A5E" id="Shape"/><path d="M165.686,210.275 C163.342,212.618 163.342,216.417 165.686,218.76 C166.857,219.931 168.393,220.517 169.928,220.517 C171.463,220.517 172.999,219.931 174.17,218.76 L241.17,151.76 C243.514,149.417 243.514,145.618 241.17,143.275 L174.17,76.275 C171.828,73.932 168.027,73.932 165.686,76.275 C163.342,78.618 163.342,82.417 165.686,84.76 L228.443,147.517 L165.686,210.275 Z" fill="#000000" id="Shape"/></g></g></svg>