<?xml version="1.0" ?><!DOCTYPE svg  PUBLIC '-//W3C//DTD SVG 1.1//EN'  'http://www.w3.org/Graphics/SVG/1.1/DTD/svg11.dtd'><svg enable-background="new 0 0 30 30" height="30px" id="Layer_1" version="1.1" viewBox="0 0 30 30" width="30px" xml:space="preserve" xmlns="http://www.w3.org/2000/svg" xmlns:xlink="http://www.w3.org/1999/xlink"><g><g><path d="M23.096,25.153C22.924,13.162,20.983,8,15,8c-5.981,0-7.924,5.162-8.097,17.153C3.919,22.77,2,19.107,2,15     C2,7.831,7.831,2,15,2c7.168,0,13,5.831,13,13C28,19.107,26.081,22.77,23.096,25.153 M14.981,19.989     c-6.018,0-5.127-7.31-5.127-7.31s1.027-2.316,5.127-2.316c4.101,0,5.169,2.316,5.169,2.316S20.997,19.989,14.981,19.989 M15,0     C6.729,0,0,6.729,0,15c0,8.272,6.729,15,15,15c8.27,0,15-6.729,15-15C30,6.729,23.27,0,15,0"/></g></g></svg>